# AST/ASF file generated using VICON BodyLanguage
# -----------------------------------------------
:version 1.10
:name VICON
:units
  mass 1.0
  length 0.45
  angle deg
:documentation
   .ast/.asf automatically generated from VICON data using
   VICON BodyBuilder and BodyLanguage model FoxedUp or BRILLIANT.MOD
:root
   order TX TY TZ RX RY RZ
   axis XYZ
   position 0 0 0  
   orientation 0 0 0 
:bonedata
  begin
     id 1 
     name lhipjoint
     direction 0.612567 -0.751349 0.245431 
     length 2.42285 
     axis 0 0 0  XYZ
  end
  begin
     id 2 
     name lfemur
     direction 0.34202 -0.939693 0  
     length 7.11304  
     axis 0 0 20  XYZ
    dof rx ry rz
    limits (-160.0 20.0)
           (-70.0 70.0)
           (-60.0 70.0)
  end
  begin
     id 3 
     name ltibia
     direction 0.34202 -0.939693 0   
     length 7.84529   
     axis 0 0 20   XYZ
    dof rx
    limits (-10.0 170.0)
  end
  begin
     id 4 
     name lfoot
     direction 0.0779239 -0.214094 0.9737   
     length 1.97176   
     axis -90 7.62852e-016 20   XYZ
    dof rx rz
    limits (-45.0 90.0)
           (-70.0 20.0)
  end
  begin
     id 5 
     name ltoes
     direction 1.53565e-011 -4.21709e-011 1   
     length 0.993197   
     axis -90 7.62852e-016 20   XYZ
    dof rx
    limits (-90.0 20.0)
  end
  begin
     id 6 
     name rhipjoint
     direction -0.665722 -0.709315 0.231701   
     length 2.56642  
     axis 0 0 0  XYZ 
  end
  begin
     id 7 
     name rfemur
     direction -0.34202 -0.939693 0   
     length 7.32108   
     axis 0 0 -20   XYZ
    dof rx ry rz
    limits (-160.0 20.0)
           (-70.0 70.0)
           (-70.0 60.0)
  end
  begin
     id 8 
     name rtibia
     direction -0.34202 -0.939693 0   
     length 7.81254   
     axis 0 0 -20   XYZ
    dof rx
    limits (-10.0 170.0)
 end
 begin
     id 9 
     name rfoot
     direction -0.0832806 -0.228812 0.969902   
     length 2.08278  
     axis -90 -7.62852e-016 -20   XYZ
    dof rx rz
    limits (-45.0 90.0)
           (-20.0 70.0)
  end
  begin
     id 10 
     name rtoes
     direction -1.53589e-011 -4.22086e-011 1   
     length 1.04609   
     axis -90 -7.62852e-016 -20   XYZ
    dof rx
    limits (-90.0 20.0)
  end
  begin
     id 11 
     name lowerback
     direction -0.00506013 0.988403 -0.151766   
     length 2.01978   
     axis 0 0 0   XYZ
    dof rx ry rz
    limits (-20.0 45.0)
           (-30.0 30.0)
           (-30.0 30.0)
  end
  begin
     id 12 
     name upperback
     direction -0.00836389 0.99968 0.0238859   
     length 2.01276   
     axis 0 0 0   XYZ
    dof rx ry rz
    limits (-20.0 45.0)
           (-30.0 30.0)
           (-30.0 30.0)
  end
  begin
     id 13 
     name thorax
     direction -0.00684136 0.995386 0.0957043   
     length 2.07303   
     axis 0 0 0   XYZ
    dof rx ry rz
    limits (-20.0 45.0)
           (-30.0 30.0)
           (-30.0 30.0)
  end
  begin
     id 14 
     name lowerneck
     direction -0.0161045 0.999661 0.0204485   
     length 1.91243   
     axis 0 0 0   XYZ
    dof rx ry rz
    limits (-20.0 45.0)
           (-30.0 30.0)
           (-30.0 30.0)
  end
  begin
     id 15 
     name upperneck
     direction 0.0553583 0.990946 -0.122319   
     length 1.91574   
     axis 0 0 0   XYZ
    dof rx ry rz
    limits (-20.0 45.0)
           (-30.0 30.0)
           (-30.0 30.0)
  end
  begin
     id 16
     name head
     direction 0.0180273 0.998839 -0.0446756  
     length 1.92693  
     axis 0 0 0   XYZ
    dof rx ry rz
    limits (-20.0 45.0)
           (-30.0 30.0)
           (-30.0 30.0)
  end
  begin
     id 17 
     name lclavicle
     direction 0.945646 0.319323 -0.0615358  
     length 4.0076  
     axis 0 0 0   XYZ
    dof ry rz
    limits (-20.0 10.0)
           (0.0 20.0)
  end
  begin
     id 18 
     name lhumerus
     direction 1 -4.48967e-011 -2.79996e-027   
     length 5.64147   
     axis 180 -30 -90   XYZ
    dof rx ry rz
    limits (-60.0 90.0)
           (-90.0 90.0)
           (-90.0 90.0)
  end
  begin
     id 19
     name lradius
     direction 1 -4.48976e-011 -9.5122e-027   
     length 2.86444   
     axis 180 -30 -90   XYZ
    dof rx
    limits (-10.0 170.0)
  end
  begin
     id 20
     name lwrist
     direction 1 -4.48983e-011 -1.24047e-026   
     length 1.43222   
     axis 9.05591e-015 90 90   XYZ
    dof ry
    limits (-180.0 0.0)
 end
  begin
     id 21 
     name lhand
     direction 1 -4.4892e-011 -2.48094e-026   
     length 0.722123   
     axis 1.58305e-014 90 90   XYZ
    dof rx rz
    limits (-90.0 90.0)
           (-45.0 45.0)
  end
  begin
     id 22 
     name lfingers
     direction 1 -4.48895e-011 -4.96187e-026   
     length 0.582194   
     axis 3.1661e-014 90 90   XYZ
    dof rx
    limits (0.0 90.0)
  end
  begin
     id 23
     name lthumb
     direction 0.707107 -6.34961e-011 0.707107   
     length 0.835918   
     axis -90 45 2.85299e-015   XYZ
    dof rx rz
    limits (-45.0 45.0)
           (-45.0 45.0)
  end
  begin
     id 24 
     name rclavicle
     direction -0.932635 0.324218 -0.15835   
     length 3.65819  
     axis 0 0 0   XYZ 
    dof ry rz
    limits (-10.0 20.0)
           (-20.0 0.0)
  end
  begin
     id 25 
     name rhumerus
     direction -1 -4.48965e-011 -4.02296e-027  
     length 5.44729   
     axis 180 30 90   XYZ
    dof rx ry rz
    limits (-90.0 60.0)
           (-90.0 90.0)
           (-90.0 90.0)
  end
  begin
     id 26 
     name rradius
     direction -1 -4.48957e-011 -8.81087e-027   
     length 3.08821   
     axis 180 30 90   XYZ
    dof rx
    limits (-10.0 170.0)
  end
  begin
     id 27 
     name rwrist
     direction -1 -4.49015e-011 -1.24047e-026   
     length 1.5441   
     axis 9.05591e-015 -90 -90   XYZ
    dof ry
    limits (-180.0 0.0)
  end
  begin
     id 28
     name rhand
     direction -1 -4.4891e-011 -2.48094e-026   
     length 0.821049   
     axis 1.58305e-014 -90 -90   XYZ
    dof rx rz
    limits (-90.0 90.0)
           (-45.0 45.0)
  end
  begin
     id 29
     name rfingers
     direction -1 -4.48985e-011 -4.96187e-026   
     length 0.661951   
     axis 3.1661e-014 -90 -90   XYZ
    dof rx
    limits (0.0 90.0)
  end
  begin
     id 30
     name rthumb
     direction -0.707107 -6.34906e-011 0.707107   
     length 0.950433   
     axis -90 -45 -2.85299e-015   XYZ
    dof rx rz
    limits (-45.0 45.0)
           (-45.0 45.0)
  end
:hierarchy
  begin
    root lhipjoint rhipjoint lowerback
    lhipjoint lfemur
    lfemur ltibia
    ltibia lfoot
    lfoot ltoes
    rhipjoint rfemur
    rfemur rtibia
    rtibia rfoot
    rfoot rtoes
    lowerback upperback
    upperback thorax
    thorax lowerneck lclavicle rclavicle
    lowerneck upperneck
    upperneck head
    lclavicle lhumerus
    lhumerus lradius
    lradius lwrist
    lwrist lhand lthumb
    lhand lfingers
    rclavicle rhumerus
    rhumerus rradius
    rradius rwrist
    rwrist rhand rthumb
    rhand rfingers
  end

#!OML:ASF F:\VICON\USERDATA\INSTALL\rory3\rory3.ASF
:FULLY-SPECIFIED
:DEGREES
1090
root 2.77952 18.1778 -0.40338 -32.3751 81.273 -35.8334
lowerback 3.65612 1.98036 5.26874
upperback 3.10123 2.88201 4.21118
thorax 1.18641 1.54621 1.31593
lowerneck 7.69442 6.37667 0.974763
upperneck 23.4094 7.63021 14.6407
head 5.22217 5.14045 4.67489
rclavicle 2.24627e-014 3.65764e-014
rhumerus 44.3608 1.19896 -65.2876
rradius 103.171
rwrist -26.6182
rhand 39.7527 -5.22528
rfingers 7.12502
rthumb 62.1899 -16.4807
lclavicle 2.24627e-014 3.65764e-014
lhumerus -10.6034 -44.2222 100.767
lradius 127.391
lwrist 27.7354
lhand -15.3313 26.4707
lfingers 7.12502
lthumb 10.8452 56.1707
rfemur -7.24542 -2.04333 22.7303
rtibia 14.6856
rfoot -2.85061 1.18678
rtoes -15.017
lfemur 0.872924 3.14985 -15.7131
ltibia 6.7179
lfoot -13.6444 9.33942
ltoes -14.327
1091
root 2.77767 18.1747 -0.414377 -31.439 81.2448 -35.0742
lowerback 4.09626 1.88471 5.65312
upperback 2.7135 2.81592 3.96809
thorax 0.570382 1.50064 0.824284
lowerneck 8.14583 6.13411 1.38434
upperneck 23.569 7.27571 15.2937
head 5.21199 5.05411 4.80943
rclavicle -1.90833e-014 -4.05521e-014
rhumerus 44.8799 3.15978 -64.822
rradius 103.557
rwrist -27.2737
rhand 39.5615 -4.75327
rfingers 7.12502
rthumb 62.0307 -16.2089
lclavicle -1.90833e-014 -4.05521e-014
lhumerus -11.8836 -44.2284 101.124
lradius 127.561
lwrist 27.7222
lhand -15.6391 26.5679
lfingers 7.12502
lthumb 10.5483 56.2833
rfemur -7.5052 -2.06128 22.6826
rtibia 14.7855
rfoot -3.11654 1.08958
rtoes -14.7915
lfemur 0.791289 3.24174 -15.7997
ltibia 6.52978
lfoot -13.644 9.16381
ltoes -13.8102
1092
root 2.77743 18.1726 -0.423976 -29.7368 81.2317 -33.5754
lowerback 4.73238 1.7914 6.11771
upperback 2.19658 2.77711 3.52478
thorax -0.274445 1.45556 0.0732134
lowerneck 8.21517 5.89751 1.82769
upperneck 23.9576 6.87726 16.0825
head 5.33729 4.98548 5.01291
rclavicle 4.57205e-015 2.62396e-014
rhumerus 45.1653 5.49972 -63.9639
rradius 103.79
rwrist -29.1889
rhand 39.359 -5.13961
rfingers 7.12502
rthumb 61.8617 -16.8046
lclavicle 4.57205e-015 2.62396e-014
lhumerus -13.3771 -44.3262 101.437
lradius 127.782
lwrist 27.7022
lhand -15.9394 26.7825
lfingers 7.12502
lthumb 10.2586 56.5123
rfemur -7.75967 -1.79792 22.511
rtibia 14.807
rfoot -3.48569 0.826754
rtoes -13.7429
lfemur 0.591773 3.37833 -16.0085
ltibia 6.49413
lfoot -13.628 8.94448
ltoes -13.7552
1093
root 2.77793 18.1714 -0.430251 -28.1786 81.1801 -32.2092
lowerback 4.94508 1.80599 6.26244
upperback 2.03296 2.823 3.32971
thorax -0.542909 1.46798 -0.221927
lowerneck 7.51883 5.68899 1.72922
upperneck 24.3301 6.40676 16.8893
head 5.56129 4.85453 5.34073
rclavicle -2.36554e-014 3.33958e-014
rhumerus 45.9557 7.76521 -62.3
rradius 103.741
rwrist -31.3806
rhand 40.0001 -6.06772
rfingers 7.12502
rthumb 62.3952 -17.0606
lclavicle -2.36554e-014 3.33958e-014
lhumerus -13.9764 -44.5792 101.657
lradius 127.886
lwrist 27.6688
lhand -15.9409 26.9875
lfingers 7.12502
lthumb 10.2572 56.7174
rfemur -7.98971 -1.46625 22.41
rtibia 14.8425
rfoot -3.81793 0.568023
rtoes -13.9662
lfemur 0.423221 3.53271 -16.1575
ltibia 6.39149
lfoot -13.4719 8.92499
ltoes -14.4903
1094
root 2.77806 18.1671 -0.433631 -26.8205 81.1854 -31.0085
lowerback 5.57517 1.73165 7.21121
upperback 1.30605 2.83677 2.49085
thorax -1.55529 1.4234 -1.65237
lowerneck 8.32673 5.49356 2.22992
upperneck 24.1037 6.17422 17.7656
head 5.35745 4.82253 5.50381
rclavicle -3.97569e-016 1.59028e-014
rhumerus 45.6051 10.2712 -61.4469
rradius 103.443
rwrist -32.7426
rhand 41.198 -6.89193
rfingers 7.12502
rthumb 63.3805 -16.5537
lclavicle -3.97569e-016 1.59028e-014
lhumerus -15.9004 -45.0519 101.938
lradius 128.082
lwrist 27.7903
lhand -15.7313 26.9118
lfingers 7.12502
lthumb 10.4593 56.6317
rfemur -8.16247 -1.13733 22.3016
rtibia 14.8763
rfoot -4.22533 0.228561
rtoes -14.1358
lfemur 0.280482 3.61928 -16.288
ltibia 6.27131
lfoot -13.3691 8.83829
ltoes -14.5404
1095
root 2.77905 18.163 -0.435606 -25.4268 81.2155 -29.7475
lowerback 5.76955 1.67385 7.52136
upperback 0.970362 2.79551 2.06065
thorax -1.97845 1.3741 -2.28063
lowerneck 8.76938 5.31339 2.4839
upperneck 23.5962 5.98409 18.133
head 5.1324 4.72944 5.53787
rclavicle -1.09332e-014 -7.95139e-015
rhumerus 45.8192 12.7781 -59.8264
rradius 102.969
rwrist -33.3856
rhand 42.3747 -7.7859
rfingers 7.12502
rthumb 64.3321 -16.0369
lclavicle -1.09332e-014 -7.95139e-015
lhumerus -16.6838 -45.2818 102.099
lradius 128.081
lwrist 27.9971
lhand -15.5967 26.9532
lfingers 7.12502
lthumb 10.5892 56.6664
rfemur -8.30802 -0.857441 22.1582
rtibia 14.912
rfoot -4.70671 -0.0387632
rtoes -13.8005
lfemur 0.144041 3.68161 -16.4417
ltibia 6.19585
lfoot -13.3204 8.62157
ltoes -13.6719
1096
root 2.78087 18.1616 -0.435616 -24.2703 81.2781 -28.7065
lowerback 4.88262 1.66584 6.22125
upperback 1.34767 2.63798 2.8002
thorax -1.20128 1.33836 -0.748634
lowerneck 8.64244 5.32285 1.73363
upperneck 22.8473 6.00349 17.6895
head 4.89303 4.57782 5.474
rclavicle 7.7526e-015 2.22639e-014
rhumerus 47.1154 14.8239 -56.9907
rradius 102.418
rwrist -36.4418
rhand 44.2943 -10.5843
rfingers 7.12502
rthumb 65.8447 -16.2891
lclavicle 7.7526e-015 2.22639e-014
lhumerus -15.7571 -44.824 102.678
lradius 127.799
lwrist 28.0929
lhand -15.6444 27.2026
lfingers 7.12502
lthumb 10.5432 56.9182
rfemur -8.44746 -0.695146 22.0582
rtibia 14.9884
rfoot -5.20481 -0.276427
rtoes -14.2612
lfemur 0.0933793 3.69395 -16.5785
ltibia 6.0303
lfoot -13.2284 8.4636
ltoes -13.1972
1097
root 2.78098 18.1609 -0.43247 -22.68 81.3871 -27.2331
lowerback 3.4575 1.70731 4.05378
upperback 2.04596 2.5007 4.05619
thorax 0.155429 1.30545 1.81692
lowerneck 8.56774 5.35539 0.567389
upperneck 21.6735 6.09848 16.7812
head 4.51126 4.37014 5.30736
rclavicle 4.96962e-014 3.73715e-014
rhumerus 48.5645 16.4781 -53.4189
rradius 101.765
rwrist -37.8533
rhand 44.9466 -11.6004
rfingers 7.12502
rthumb 66.3461 -16.3638
lclavicle 4.96962e-014 3.73715e-014
lhumerus -13.8909 -44.1237 103.482
lradius 127.323
lwrist 28.1865
lhand -15.6102 27.2528
lfingers 7.12502
lthumb 10.5762 56.9667
rfemur -8.60433 -0.582286 21.8849
rtibia 15.0814
rfoot -5.57066 -0.503364
rtoes -14.4697
lfemur 0.0524271 3.68462 -16.8008
ltibia 5.84175
lfoot -13.0376 8.41883
ltoes -13.419
1098
root 2.77919 18.1611 -0.428193 -21.5083 81.468 -26.1124
lowerback 3.55559 1.67454 3.91869
upperback 1.86522 2.45678 3.77895
thorax -0.0789143 1.27513 1.60006
lowerneck 8.68183 5.37562 0.576292
upperneck 21.0628 6.16559 16.8109
head 4.29484 4.35782 5.27932
rclavicle -9.93923e-016 -7.15625e-015
rhumerus 47.9386 17.6726 -52.763
rradius 100.873
rwrist -35.6782
rhand 45.1105 -9.43228
rfingers 7.12502
rthumb 66.471 -13.9526
lclavicle -9.93923e-016 -7.15625e-015
lhumerus -13.6266 -44.2485 103.207
lradius 127.038
lwrist 28.5456
lhand -15.5518 27.1112
lfingers 7.12502
lthumb 10.6325 56.8222
rfemur -8.7015 -0.464317 21.7446
rtibia 15.177
rfoot -5.79638 -0.633365
rtoes -14.2088
lfemur 0.0361668 3.67044 -16.9649
ltibia 5.70367
lfoot -12.7963 8.41559
ltoes -14.1088
1099
root 2.77709 18.1595 -0.423952 -21.3284 81.503 -25.9069
lowerback 3.78306 1.69594 3.85585
upperback 1.64289 2.49932 3.56026
thorax -0.427659 1.28762 1.39544
lowerneck 8.20933 5.61571 0.323955
upperneck 21.462 6.37053 17.3374
head 4.43976 4.51327 5.52268
rclavicle -4.57205e-015 1.43125e-014
rhumerus 46.74 18.4551 -52.4656
rradius 99.6528
rwrist -31.4854
rhand 44.2932 -4.42692
rfingers 7.12502
rthumb 65.8438 -10.1332
lclavicle -4.57205e-015 1.43125e-014
lhumerus -13.4996 -44.3991 103.121
lradius 126.769
lwrist 28.8063
lhand -15.3229 26.8919
lfingers 7.12502
lthumb 10.8533 56.5915
rfemur -8.7337 -0.418384 21.7306
rtibia 15.2768
rfoot -5.93214 -0.61537
rtoes -13.4084
lfemur 0.114699 3.64222 -16.9787
ltibia 5.58732
lfoot -12.6469 8.37669
ltoes -14.1783
1100
root 2.77412 18.1588 -0.423293 -21.0681 81.5698 -25.5597
lowerback 3.71769 1.76184 3.86354
upperback 1.6646 2.57192 3.27151
thorax -0.35476 1.32237 1.09443
lowerneck 8.31137 5.69296 0.308025
upperneck 20.7505 6.53809 17.2517
head 4.19028 4.53443 5.4545
rclavicle -1.48095e-014 1.03368e-014
rhumerus 45.3142 18.1216 -53.0016
rradius 99.3042
rwrist -29.9514
rhand 45.2137 -4.97295
rfingers 7.12502
rthumb 66.5494 -9.33891
lclavicle -1.48095e-014 1.03368e-014
lhumerus -12.9535 -44.6082 102.69
lradius 126.668
lwrist 29.3152
lhand -14.9776 26.9992
lfingers 7.12502
lthumb 11.1864 56.681
rfemur -8.73632 -0.663144 21.6597
rtibia 15.3896
rfoot -5.8722 -0.50518
rtoes -13.7368
lfemur 0.26749 3.58682 -17.0658
ltibia 5.44668
lfoot -12.5519 8.39638
ltoes -14.1569
1101
root 2.77136 18.1603 -0.424733 -21.9811 81.5742 -26.3367
lowerback 3.69036 1.82054 4.05099
upperback 1.75303 2.64488 3.04867
thorax -0.22862 1.36105 0.762043
lowerneck 8.19797 5.85733 0.313871
upperneck 20.4995 6.77719 17.2084
head 4.11298 4.63387 5.42705
rclavicle -9.64106e-015 -3.57812e-014
rhumerus 43.8224 17.3397 -53.6331
rradius 99.0366
rwrist -29.8706
rhand 45.4394 -5.59031
rfingers 7.12502
rthumb 66.7203 -9.61483
lclavicle -9.64106e-015 -3.57812e-014
lhumerus -12.2083 -44.7099 102.098
lradius 126.65
lwrist 30.0125
lhand -14.5445 27.2554
lfingers 7.12502
lthumb 11.604 56.9141
rfemur -8.68798 -1.00056 21.7432
rtibia 15.4928
rfoot -5.65143 -0.346617
rtoes -14.1178
lfemur 0.463745 3.52636 -16.9716
ltibia 5.34117
lfoot -12.5991 8.44028
ltoes -13.6198
1102
root 2.76821 18.1613 -0.427741 -23.274 81.5584 -27.4122
lowerback 3.69255 1.89643 4.14484
upperback 1.92951 2.74165 2.98476
thorax -0.0391147 1.41492 0.645455
lowerneck 8.05791 6.05281 0.142241
upperneck 20.4749 7.03504 17.1407
head 4.10084 4.74428 5.43297
rclavicle 7.95139e-015 4.53229e-014
rhumerus 42.4518 16.0766 -54.0594
rradius 98.7819
rwrist -30.8919
rhand 44.8848 -6.19323
rfingers 7.12502
rthumb 66.2989 -11.0475
lclavicle 7.95139e-015 4.53229e-014
lhumerus -11.3982 -44.8922 101.694
lradius 126.515
lwrist 29.8872
lhand -14.6397 27.108
lfingers 7.12502
lthumb 11.5122 56.7718
rfemur -8.52142 -1.34617 21.8354
rtibia 15.5796
rfoot -5.36465 -0.0858545
rtoes -14.2346
lfemur 0.730836 3.46031 -16.8473
ltibia 5.28455
lfoot -12.7087 8.55357
ltoes -13.3382
